<svg width="148" height="46" viewBox="0 0 148 46" fill="none" xmlns="http://www.w3.org/2000/svg">
<path d="M24.0292 0.886719C11.4627 0.886719 1.25488 10.798 1.25488 22.9992C1.25488 35.2004 11.4627 45.1117 24.0292 45.1117C36.5956 45.1117 46.8034 35.2004 46.8034 22.9992C46.8034 18.5536 45.452 14.4122 43.1238 10.9432C43.6062 10.2123 43.8961 9.34191 43.8961 8.41438C43.8961 5.82715 41.7152 3.70959 39.0505 3.70959C38.094 3.70959 37.1993 3.98996 36.446 4.45942C32.876 2.20434 28.6017 0.886719 24.0292 0.886719ZM24.0292 2.76863C28.0716 2.76863 31.8311 3.88143 35.0226 5.81204C34.5059 6.55989 34.2049 7.45145 34.2049 8.41438C34.2049 11.0016 36.3858 13.1192 39.0505 13.1192C40.0379 13.1192 40.9625 12.8376 41.7307 12.3399C43.7129 15.4363 44.8652 19.0831 44.8652 22.9992C44.8652 34.1833 35.548 43.2298 24.0292 43.2298C12.5103 43.2298 3.19312 34.1833 3.19312 22.9992C3.19312 11.8151 12.5103 2.76863 24.0292 2.76863ZM24.0292 9.82581C16.5474 9.82581 10.4615 15.7349 10.4615 22.9992C10.4615 25.2923 11.0772 27.4433 12.1423 29.3213C11.6971 29.9338 11.4306 30.6667 11.4306 31.4678C11.4306 33.5354 13.1777 35.2317 15.3071 35.2317C16.1253 35.2317 16.89 34.981 17.5179 34.5554C19.4515 35.5853 21.6727 36.1726 24.0292 36.1726C31.5109 36.1726 37.5968 30.2635 37.5968 22.9992C37.5968 15.7349 31.5109 9.82581 24.0292 9.82581ZM24.0292 11.7077C30.4634 11.7077 35.6586 16.752 35.6586 22.9992C35.6586 29.2464 30.4634 34.2907 24.0292 34.2907C22.1387 34.2907 20.3767 33.8457 18.805 33.0704C19.0427 32.584 19.1836 32.0388 19.1836 31.4678C19.1836 29.4003 17.4365 27.704 15.3071 27.704C14.7106 27.704 14.1479 27.8492 13.6414 28.0863C12.844 26.5584 12.3997 24.8375 12.3997 22.9992C12.3997 16.752 17.5949 11.7077 24.0292 11.7077ZM24.0292 17.824C21.0968 17.824 18.699 20.1521 18.699 22.9992C18.699 25.8463 21.0968 28.1745 24.0292 28.1745C26.9615 28.1745 29.3593 25.8463 29.3593 22.9992C29.3593 20.1521 26.9615 17.824 24.0292 17.824ZM24.0292 19.7059C25.9139 19.7059 27.4211 21.1692 27.4211 22.9992C27.4211 24.8292 25.9139 26.2926 24.0292 26.2926C22.1444 26.2926 20.6372 24.8292 20.6372 22.9992C20.6372 21.1692 22.1444 19.7059 24.0292 19.7059Z" fill="url(#paint0_linear_3153_539)"/>
<path d="M68.2494 35.47C60.9796 35.47 55.6484 30.1998 55.6484 23.0006C55.6484 15.8015 60.9796 10.5312 68.2494 10.5312C71.6073 10.5312 74.7229 11.8057 77.1808 14.217L73.7536 17.6615C72.4035 16.1115 70.3264 15.1814 68.2494 15.1814C64.0606 15.1814 61.0142 18.4538 61.0142 23.0006C61.0142 27.5475 64.0606 30.8198 68.2494 30.8198C69.9803 30.8198 71.6073 30.4065 72.9574 29.3042V25.8252H67.1762V21.3128H78.2193V31.1987C75.8307 34.0233 71.8843 35.47 68.2494 35.47ZM91.5645 35.0567V33.0244C90.526 34.5055 88.4143 35.47 86.4411 35.47C82.737 35.47 80.2099 32.9555 80.2099 29.2009V18.1093H85.0218V28.6842C85.0218 30.3376 86.3372 31.4054 88.172 31.4054C90.076 31.4054 91.4607 30.3032 91.5645 28.4086V18.1093H96.3764V35.0567H91.5645ZM114.914 24.9296V35.0567H110.102V24.4474C110.102 22.8284 108.787 21.7606 107.16 21.7606C105.325 21.7606 104.044 23.1384 104.044 24.9296V35.0567H99.2324V18.1093H104.044V20.1761C105.187 18.6605 106.848 17.696 108.925 17.696C111.141 17.696 112.941 18.6949 113.945 20.3483C115.364 18.7982 117.061 17.696 119.553 17.696C123.292 17.696 125.784 20.1761 125.784 23.9996V35.0567H120.972V24.4474C120.972 22.8284 119.622 21.7606 117.995 21.7606C116.161 21.7606 114.914 23.1384 114.914 24.9296ZM128.502 10.9446H133.314V19.935C134.456 18.5916 136.326 17.696 138.264 17.696C143.249 17.696 146.746 21.3817 146.746 26.583C146.746 31.7843 143.249 35.47 138.368 35.47C136.464 35.47 134.283 34.5744 133.314 33.0933V35.0567H128.502V10.9446ZM141.899 26.583C141.899 23.9307 140.341 21.7606 137.468 21.7606C135.079 21.7606 133.314 23.8273 133.314 26.583C133.314 29.3387 135.114 31.4054 137.537 31.4054C140.134 31.4054 141.899 29.4765 141.899 26.583Z" fill="url(#paint1_linear_3153_539)"/>
<defs>
<linearGradient id="paint0_linear_3153_539" x1="1.25488" y1="0.886719" x2="46.8034" y2="0.886719" gradientUnits="userSpaceOnUse">
<stop stop-color="#147D6C"/>
<stop offset="1" stop-color="#1EFFFF"/>
</linearGradient>
<linearGradient id="paint1_linear_3153_539" x1="55.6484" y1="10.5312" x2="146.746" y2="10.5312" gradientUnits="userSpaceOnUse">
<stop stop-color="#147D6C"/>
<stop offset="1" stop-color="#1EFFFF"/>
</linearGradient>
</defs>
</svg>
